*******************************************************************************
                           The Disco Exorcist (2011)
*******************************************************************************

-------------------------------------------------------------------------------
                              General Information
-------------------------------------------------------------------------------
Type.................: Movie



Video Format.........: AVI
Video Bitrate........: 3301
Resolution...........: 720 x 404
Color................: 8 bit
FPS..................: 29.97
Source...............: DVD 16x9
Original Format......: NTSC
Genre................: Horror
IMDb Rating..........: 5.8
Movie Information....: http://www.imdb.com/title/tt1680119

-------------------------------------------------------------------------------
                               Post Information
-------------------------------------------------------------------------------
Posted by............: RadioResearch

-------------------------------------------------------------------------------
                                 Release Notes
-------------------------------------------------------------------------------
Suave swinger and womanizer Rex Romanski loves and leaves evil black magic 
priestess Rita Marie. Naturally, Rex incurs Rita's lethal wrath by spurning her. 
Can Rex figure out a way to stop Rita's subsequent rampage of revenge, murder, 
and destruction as well as reclaim the soul of his new porn starlet gal Amoreena 
Jones before it's too late? 

Enjoy!

RadioResearch

General
Complete name                            : G:AVIThe Disco Exorcist (2011)The 
Disco Exorcist_Title1.avi
Format                                   : AVI
Format/Info                              : Audio Video Interleave
Format profile                           : OpenDML
File size                                : 1.95 GiB
Duration                                 : 1h 24mn
Overall bit rate                         : 3 301 Kbps
Movie name                               : The_Disco_Exorcist
Writing application                      : MEncoder 5.0
Writing library                          : [= DigiArty videodll! =]

Video
ID                                       : 0
Format                                   : MPEG-4 Visual
Format profile                           : Simple@L1
Format settings, BVOP                    : No
Format settings, QPel                    : No
Format settings, GMC                     : No warppoints
Format settings, Matrix                  : Default (H.263)
Codec ID                                 : DX50
Codec ID/Hint                            : DivX 5
Duration                                 : 1h 24mn
Bit rate                                 : 3 103 Kbps
Width                                    : 720 pixels
Height                                   : 404 pixels
Display aspect ratio                     : 16:9
Frame rate                               : 29.970 fps
Color space                              : YUV
Chroma subsampling                       : 4:2:0
Bit depth                                : 8 bits
Scan type                                : Progressive
Compression mode                         : Lossy
Bits/(Pixel*Frame)                       : 0.356
Stream size                              : 1.83 GiB (94%)
Writing library                          : Lavc54.71.100

Audio
ID                                       : 1
Format                                   : AC-3
Format/Info                              : Audio Coding 3
Mode extension                           : CM (complete main)
Format settings, Endianness              : Big
Codec ID                                 : 2000
Duration                                 : 1h 24mn
Bit rate mode                            : Constant
Bit rate                                 : 192 Kbps
Channel(s)                               : 2 channels
Channel positions                        : Front: L R
Sampling rate                            : 48.0 KHz
Bit depth                                : 16 bits
Compression mode                         : Lossy
Stream size                              : 116 MiB (6%)
Alignment                                : Split accross interleaves
Interleave, duration                     : 500 ms (14.98 video frames)
Interleave, preload duration             : 500 ms



-------------------------------------------------------------------------------
Generated with Cool NFO Creator - http://fly.to/coolbeans
-------------------------------------------------------------------------------
